<?xml version="1.0" encoding="UTF-8" standalone="no"?>
<!-- Created with Inkscape (http://www.inkscape.org/) -->

<svg
   xmlns:dc="http://purl.org/dc/elements/1.1/"
   xmlns:cc="http://creativecommons.org/ns#"
   xmlns:rdf="http://www.w3.org/1999/02/22-rdf-syntax-ns#"
   xmlns:svg="http://www.w3.org/2000/svg"
   xmlns="http://www.w3.org/2000/svg"
   xmlns:xlink="http://www.w3.org/1999/xlink"
   xmlns:sodipodi="http://sodipodi.sourceforge.net/DTD/sodipodi-0.dtd"
   xmlns:inkscape="http://www.inkscape.org/namespaces/inkscape"
   width="16"
   height="16"
   id="svg2"
   version="1.1"
   inkscape:version="0.92.4 (5da689c313, 2019-01-14)"
   sodipodi:docname="rotate_page.svg"
   viewBox="0 0 16 16">
  <defs
     id="defs4">
    <linearGradient
       inkscape:collect="always"
       id="linearGradient4547">
      <stop
         style="stop-color:#bcbcbc;stop-opacity:0.49803922"
         offset="0"
         id="stop4543" />
      <stop
         style="stop-color:#ffffff;stop-opacity:0.49803922"
         offset="1"
         id="stop4545" />
    </linearGradient>
    <linearGradient
       id="linearGradient4517"
       inkscape:collect="always">
      <stop
         id="stop4513"
         offset="0"
         style="stop-color:#bcbcbc;stop-opacity:1" />
      <stop
         id="stop4515"
         offset="1"
         style="stop-color:#ffffff;stop-opacity:1" />
    </linearGradient>
    <linearGradient
       inkscape:collect="always"
       id="linearGradient3761">
      <stop
         style="stop-color:#bcbcbc;stop-opacity:1"
         offset="0"
         id="stop3763" />
      <stop
         style="stop-color:#ffffff;stop-opacity:1"
         offset="1"
         id="stop3765" />
    </linearGradient>
    <linearGradient
       inkscape:collect="always"
       xlink:href="#linearGradient4517"
       id="linearGradient3769"
       x1="2.6818182"
       y1="1044.9733"
       x2="14.5"
       y2="1044.9733"
       gradientUnits="userSpaceOnUse"
       gradientTransform="matrix(0.84615387,0,0,0.81818183,1.2307692,189.88404)" />
    <linearGradient
       inkscape:collect="always"
       xlink:href="#linearGradient3761-5"
       id="linearGradient3769-8"
       x1="1"
       y1="1044.3622"
       x2="15"
       y2="1044.3622"
       gradientUnits="userSpaceOnUse" />
    <linearGradient
       inkscape:collect="always"
       id="linearGradient3761-5">
      <stop
         style="stop-color:#bcbcbc;stop-opacity:1"
         offset="0"
         id="stop3763-4" />
      <stop
         style="stop-color:#ffffff;stop-opacity:0;"
         offset="1"
         id="stop3765-7" />
    </linearGradient>
    <linearGradient
       gradientTransform="translate(-523.15481,-135.84618)"
       y2="1044.3622"
       x2="15"
       y1="1044.3622"
       x1="1"
       gradientUnits="userSpaceOnUse"
       id="linearGradient3786"
       xlink:href="#linearGradient3761-5"
       inkscape:collect="always" />
    <linearGradient
       inkscape:collect="always"
       xlink:href="#linearGradient3761-55"
       id="linearGradient3769-9"
       x1="1"
       y1="1044.3622"
       x2="15"
       y2="1044.3622"
       gradientUnits="userSpaceOnUse"
       gradientTransform="matrix(0.84615387,0,0,0.81818183,1.2307692,189.88404)" />
    <linearGradient
       inkscape:collect="always"
       id="linearGradient3761-55">
      <stop
         style="stop-color:#bcbcbc;stop-opacity:1"
         offset="0"
         id="stop3763-46" />
      <stop
         style="stop-color:#ffffff;stop-opacity:0;"
         offset="1"
         id="stop3765-3" />
    </linearGradient>
    <linearGradient
       inkscape:collect="always"
       xlink:href="#linearGradient3761"
       id="linearGradient3769-3"
       x1="0.31818184"
       y1="1043.7511"
       x2="12.136363"
       y2="1043.7511"
       gradientUnits="userSpaceOnUse"
       gradientTransform="matrix(0.84615387,0,0,0.81818183,1.2307692,189.88404)" />
    <linearGradient
       inkscape:collect="always"
       xlink:href="#linearGradient4547"
       id="linearGradient3769-5"
       x1="3.8636332"
       y1="1048.64"
       x2="14.499996"
       y2="1042.5288"
       gradientUnits="userSpaceOnUse"
       gradientTransform="matrix(0.73279075,0.42307693,-0.40909091,0.70856625,-93.876141,165.05978)" />
  </defs>
  <sodipodi:namedview
     id="base"
     pagecolor="#ffffff"
     bordercolor="#666666"
     borderopacity="1.0"
     inkscape:pageopacity="0.0"
     inkscape:pageshadow="2"
     inkscape:zoom="27.125"
     inkscape:cx="5.9242542"
     inkscape:cy="11.481977"
     inkscape:document-units="px"
     inkscape:current-layer="layer1"
     showgrid="true"
     inkscape:window-width="1920"
     inkscape:window-height="1017"
     inkscape:window-x="-8"
     inkscape:window-y="-8"
     inkscape:window-maximized="1">
    <inkscape:grid
       type="xygrid"
       id="grid2985"
       empspacing="5"
       visible="true"
       enabled="true"
       snapvisiblegridlinesonly="true" />
  </sodipodi:namedview>
  <metadata
     id="metadata7">
    <rdf:RDF>
      <cc:Work
         rdf:about="">
        <dc:format>image/svg+xml</dc:format>
        <dc:type
           rdf:resource="http://purl.org/dc/dcmitype/StillImage" />
        <dc:title />
      </cc:Work>
    </rdf:RDF>
  </metadata>
  <g
     inkscape:label="Layer 1"
     inkscape:groupmode="layer"
     id="layer1"
     transform="translate(0,-1036.3622)">
    <rect
       style="fill:url(#linearGradient3769-3);fill-opacity:1;stroke:#acacac;stroke-width:1;stroke-linecap:round;stroke-linejoin:round;stroke-miterlimit:4;stroke-dasharray:none;stroke-opacity:1"
       id="rect3002-3"
       width="10"
       height="8.9999828"
       x="1.5"
       y="1038.8622" />
    <rect
       style="fill:url(#linearGradient3769);fill-opacity:1;stroke:#acacac;stroke-width:1;stroke-linecap:round;stroke-linejoin:round;stroke-miterlimit:4;stroke-dasharray:none;stroke-opacity:1"
       id="rect3002"
       width="10"
       height="8.9999828"
       x="3.5"
       y="1040.8622" />
    <rect
       style="fill:url(#linearGradient3769-5);fill-opacity:1;stroke:#5b5b5b;stroke-width:1;stroke-linecap:round;stroke-linejoin:round;stroke-miterlimit:4;stroke-dasharray:none;stroke-opacity:1"
       id="rect3002-9"
       width="10"
       height="8.9999828"
       x="-520.31989"
       y="905.06018"
       transform="rotate(-30)" />
    <path
       style="fill:#1a1a1a;fill-opacity:1;fill-rule:evenodd;stroke:#00fc00;stroke-width:0.1195515;stroke-linecap:round;stroke-linejoin:round;stroke-miterlimit:4;stroke-dasharray:none;stroke-opacity:1;paint-order:normal"
       d="M 6.2923526,15.894456 C 6.225129,15.879048 6.1308916,15.829581 6.0829359,15.784529 5.9959567,15.702816 5.1064769,14.193736 5.0371423,14.010249 5.0170424,13.957056 4.6902571,13.376411 4.3109527,12.719926 3.5801424,11.455069 2.2726621,9.1886105 1.7647721,8.3062367 1.5973545,8.0153766 1.4497397,7.7289718 1.4367393,7.669781 1.4206974,7.5967425 1.4376022,7.5115521 1.4893495,7.4046562 1.5740941,7.2295974 1.2076964,7.4517644 5.4560514,4.9994259 6.4293233,4.4376102 7.9256267,3.573024 8.78117,3.0781231 9.6367132,2.5832222 10.388952,2.1600893 10.452812,2.1378277 c 0.145713,-0.050796 0.356584,0.00561 0.468016,0.1251969 0.04283,0.045963 0.507875,0.8301131 1.033432,1.7425555 1.613939,2.802028 2.042617,3.5384369 2.070953,3.5576037 0.03058,0.020683 0.307085,0.4901268 1.051009,1.7843605 0.714629,1.2432687 0.7151,1.2394777 -0.221173,1.7823377 -0.323366,0.187491 -0.679182,0.384845 -0.790703,0.438565 -0.329798,0.158867 -4.2094924,2.397988 -4.2399683,2.447049 -0.010324,0.01662 -0.4997246,0.307326 -1.0875576,0.646014 -2.3564369,1.357694 -2.2138894,1.285795 -2.4444675,1.232946 z m 1.3307082,-1.756457 c 0.5519237,-0.317492 2.0818386,-1.199578 3.3998112,-1.960192 1.317972,-0.760614 2.615652,-1.508681 2.883734,-1.662373 0.268081,-0.153692 0.487897,-0.290819 0.488479,-0.304728 9.04e-4,-0.02159 -0.729423,-1.2930721 -3.479459,-6.0576605 C 10.658155,3.7069626 10.433077,3.3275073 10.415452,3.3098115 10.397241,3.291526 8.703682,4.246378 6.4922044,5.521793 3.6242161,7.1758345 2.6060877,7.7802013 2.620346,7.8201497 c 0.01064,0.02981 0.7380777,1.2989349 1.6165285,2.8202763 2.0428555,3.537911 2.3551784,4.074832 2.3703036,4.074832 0.00681,0 0.4639591,-0.259767 1.0158827,-0.577259 z"
       id="path5264"
       inkscape:connector-curvature="0"
       transform="translate(0,1036.3622)" />
  </g>
</svg>
