<?xml version="1.0" encoding="UTF-8" standalone="no"?>
<!-- Created with Inkscape (http://www.inkscape.org/) -->

<svg
   xmlns:dc="http://purl.org/dc/elements/1.1/"
   xmlns:cc="http://creativecommons.org/ns#"
   xmlns:rdf="http://www.w3.org/1999/02/22-rdf-syntax-ns#"
   xmlns:svg="http://www.w3.org/2000/svg"
   xmlns="http://www.w3.org/2000/svg"
   xmlns:xlink="http://www.w3.org/1999/xlink"
   xmlns:sodipodi="http://sodipodi.sourceforge.net/DTD/sodipodi-0.dtd"
   xmlns:inkscape="http://www.inkscape.org/namespaces/inkscape"
   width="16"
   height="16"
   id="svg2"
   version="1.1"
   inkscape:version="0.92.4 (5da689c313, 2019-01-14)"
   sodipodi:docname="rotate_pages.svg"
   viewBox="0 0 16 16">
  <defs
     id="defs4">
    <linearGradient
       inkscape:collect="always"
       id="linearGradient4596">
      <stop
         style="stop-color:#bcbcbc;stop-opacity:0.49803922"
         offset="0"
         id="stop4592" />
      <stop
         style="stop-color:#ffffff;stop-opacity:0.49803922"
         offset="1"
         id="stop4594" />
    </linearGradient>
    <linearGradient
       inkscape:collect="always"
       id="linearGradient4547">
      <stop
         style="stop-color:#bcbcbc;stop-opacity:0.49803922"
         offset="0"
         id="stop4543" />
      <stop
         style="stop-color:#ffffff;stop-opacity:0.49803922"
         offset="1"
         id="stop4545" />
    </linearGradient>
    <linearGradient
       id="linearGradient4517"
       inkscape:collect="always">
      <stop
         id="stop4513"
         offset="0"
         style="stop-color:#bcbcbc;stop-opacity:1" />
      <stop
         id="stop4515"
         offset="1"
         style="stop-color:#ffffff;stop-opacity:1" />
    </linearGradient>
    <linearGradient
       inkscape:collect="always"
       id="linearGradient3761">
      <stop
         style="stop-color:#bcbcbc;stop-opacity:1"
         offset="0"
         id="stop3763" />
      <stop
         style="stop-color:#ffffff;stop-opacity:1"
         offset="1"
         id="stop3765" />
    </linearGradient>
    <linearGradient
       inkscape:collect="always"
       xlink:href="#linearGradient4517"
       id="linearGradient3769"
       x1="2.6818182"
       y1="1044.9733"
       x2="14.5"
       y2="1044.9733"
       gradientUnits="userSpaceOnUse"
       gradientTransform="matrix(0.84615387,0,0,0.81818183,1.2307692,189.88404)" />
    <linearGradient
       inkscape:collect="always"
       xlink:href="#linearGradient3761-5"
       id="linearGradient3769-8"
       x1="1"
       y1="1044.3622"
       x2="15"
       y2="1044.3622"
       gradientUnits="userSpaceOnUse" />
    <linearGradient
       inkscape:collect="always"
       id="linearGradient3761-5">
      <stop
         style="stop-color:#bcbcbc;stop-opacity:1"
         offset="0"
         id="stop3763-4" />
      <stop
         style="stop-color:#ffffff;stop-opacity:0;"
         offset="1"
         id="stop3765-7" />
    </linearGradient>
    <linearGradient
       gradientTransform="translate(-523.15481,-135.84618)"
       y2="1044.3622"
       x2="15"
       y1="1044.3622"
       x1="1"
       gradientUnits="userSpaceOnUse"
       id="linearGradient3786"
       xlink:href="#linearGradient3761-5"
       inkscape:collect="always" />
    <linearGradient
       inkscape:collect="always"
       xlink:href="#linearGradient3761-55"
       id="linearGradient3769-9"
       x1="1"
       y1="1044.3622"
       x2="15"
       y2="1044.3622"
       gradientUnits="userSpaceOnUse"
       gradientTransform="matrix(0.84615387,0,0,0.81818183,1.2307692,189.88404)" />
    <linearGradient
       inkscape:collect="always"
       id="linearGradient3761-55">
      <stop
         style="stop-color:#bcbcbc;stop-opacity:1"
         offset="0"
         id="stop3763-46" />
      <stop
         style="stop-color:#ffffff;stop-opacity:0;"
         offset="1"
         id="stop3765-3" />
    </linearGradient>
    <linearGradient
       inkscape:collect="always"
       xlink:href="#linearGradient3761"
       id="linearGradient3769-3"
       x1="0.31818184"
       y1="1043.7511"
       x2="12.136363"
       y2="1043.7511"
       gradientUnits="userSpaceOnUse"
       gradientTransform="matrix(0.84615387,0,0,0.81818183,1.2307692,189.88404)" />
    <linearGradient
       inkscape:collect="always"
       xlink:href="#linearGradient4547"
       id="linearGradient3769-5"
       x1="3.8636332"
       y1="1048.64"
       x2="14.499996"
       y2="1042.5288"
       gradientUnits="userSpaceOnUse"
       gradientTransform="matrix(0.73279075,0.42307693,-0.40909091,0.70856625,-93.876141,165.05978)" />
    <linearGradient
       inkscape:collect="always"
       xlink:href="#linearGradient4596"
       id="linearGradient3769-3-1"
       x1="1.499998"
       y1="1047.4177"
       x2="12.136361"
       y2="1041.3066"
       gradientUnits="userSpaceOnUse"
       gradientTransform="matrix(0.73279075,0.42307693,-0.40909091,0.70856625,-93.876142,165.05978)" />
  </defs>
  <sodipodi:namedview
     id="base"
     pagecolor="#ffffff"
     bordercolor="#666666"
     borderopacity="1.0"
     inkscape:pageopacity="0.0"
     inkscape:pageshadow="2"
     inkscape:zoom="54.25"
     inkscape:cx="-2.220512"
     inkscape:cy="9.0936828"
     inkscape:document-units="px"
     inkscape:current-layer="layer1"
     showgrid="true"
     inkscape:window-width="1920"
     inkscape:window-height="1017"
     inkscape:window-x="-8"
     inkscape:window-y="-8"
     inkscape:window-maximized="1">
    <inkscape:grid
       type="xygrid"
       id="grid2985"
       empspacing="5"
       visible="true"
       enabled="true"
       snapvisiblegridlinesonly="true" />
  </sodipodi:namedview>
  <metadata
     id="metadata7">
    <rdf:RDF>
      <cc:Work
         rdf:about="">
        <dc:format>image/svg+xml</dc:format>
        <dc:type
           rdf:resource="http://purl.org/dc/dcmitype/StillImage" />
        <dc:title />
      </cc:Work>
    </rdf:RDF>
  </metadata>
  <g
     inkscape:label="Layer 1"
     inkscape:groupmode="layer"
     id="layer1"
     transform="translate(0,-1036.3622)">
    <rect
       style="fill:url(#linearGradient3769-3);fill-opacity:1;stroke:#acacac;stroke-width:1;stroke-linecap:round;stroke-linejoin:round;stroke-miterlimit:4;stroke-dasharray:none;stroke-opacity:1"
       id="rect3002-3"
       width="10"
       height="8.9999828"
       x="1.5"
       y="1038.8622" />
    <rect
       style="fill:url(#linearGradient3769-3-1);fill-opacity:1;stroke:#5b5b5b;stroke-width:1;stroke-linecap:round;stroke-linejoin:round;stroke-miterlimit:4;stroke-dasharray:none;stroke-opacity:1"
       id="rect3002-3-9"
       width="10"
       height="8.9999828"
       x="-521.05194"
       y="902.32819"
       transform="rotate(-30)" />
    <rect
       style="fill:url(#linearGradient3769);fill-opacity:1;stroke:#acacac;stroke-width:1;stroke-linecap:round;stroke-linejoin:round;stroke-miterlimit:4;stroke-dasharray:none;stroke-opacity:1"
       id="rect3002"
       width="10"
       height="8.9999828"
       x="3.5"
       y="1040.8622" />
    <rect
       style="fill:url(#linearGradient3769-5);fill-opacity:1;stroke:#5b5b5b;stroke-width:1;stroke-linecap:round;stroke-linejoin:round;stroke-miterlimit:4;stroke-dasharray:none;stroke-opacity:1"
       id="rect3002-9"
       width="10"
       height="8.9999828"
       x="-520.31989"
       y="905.06018"
       transform="rotate(-30)" />
    <path
       style="fill:#1a1a1a;fill-opacity:1;fill-rule:evenodd;stroke:#00fc00;stroke-width:0.05977575;stroke-linecap:round;stroke-linejoin:round;stroke-miterlimit:4;stroke-dasharray:none;stroke-opacity:1;paint-order:normal"
       d="M 6.2881024,15.886923 C 6.1876038,15.859871 6.0752947,15.787029 6.0211304,15.713768 6.000349,15.68566 5.7782228,15.306263 5.5275166,14.870665 5.2768102,14.435066 5.0642139,14.070787 5.0550805,14.061156 c -0.00913,-0.0096 -0.016606,-0.02878 -0.016606,-0.04255 0,-0.02373 -0.2704817,-0.496887 -1.5041342,-2.631181 l -0.5327322,-0.921659 -0.00922,0.715071 -0.00922,0.715071 -0.2056749,-0.355624 C 2.6643787,11.344689 2.2345887,10.599866 1.822411,9.8851191 1.4102333,9.1703725 1.0369529,8.5316629 0.99289919,8.4657643 0.94884546,8.3998656 0.7765304,8.1095431 0.60997681,7.820603 0.44342324,7.5316629 0.11438291,6.9615093 -0.12122393,6.5535952 -0.35683076,6.1456811 -0.55811857,5.7810813 -0.56853015,5.7433737 c -0.0257305,-0.093188 -0.0109914,-0.2766502 0.0288624,-0.3592583 0.0179967,-0.037303 0.0603797,-0.096303 0.0941845,-0.1311106 0.0553644,-0.057007 1.38488201,-0.8425401 1.42600201,-0.8425401 0.0259684,0 4.16374974,-2.3888752 4.19922064,-2.4243462 0.04215,-0.04215 3.1861459,-1.84728142 3.2577149,-1.87042336 0.095604,-0.03091362 0.2790916,-0.0147767 0.3711473,0.0326408 0.1326663,0.0683358 0.1611707,0.10741651 0.4735272,0.64922559 0.055525,0.0963134 0.2256932,0.39078337 0.3781509,0.65437787 0.1524579,0.2635944 0.2905563,0.5113038 0.3068856,0.5504649 0.016329,0.039161 0.059226,0.1198245 0.095326,0.1792516 l 0.06564,0.1080494 0.15373,-0.08312 c 0.184495,-0.099755 0.290432,-0.1178369 0.438384,-0.074826 0.194611,0.056575 0.196237,0.05896 1.03885,1.5229454 0.42305,0.7350231 0.877126,1.5230415 1.009058,1.7511521 0.131932,0.2281106 0.462256,0.7998848 0.734052,1.2706092 0.271797,0.4707246 0.501283,0.8605864 0.509969,0.8663595 0.0087,0.00577 0.173652,0.2842295 0.36659,0.6187917 0.192938,0.3345622 0.398876,0.6912442 0.457639,0.7926267 0.463009,0.7988137 0.706757,1.2297551 0.724728,1.2813071 0.0593,0.170099 0.0017,0.406339 -0.128691,0.52772 -0.03419,0.03183 -0.290276,0.189016 -0.569078,0.3493 -0.278802,0.160283 -0.577419,0.332229 -0.663594,0.382101 -0.08618,0.04987 -0.17742,0.09852 -0.202765,0.108112 -0.04449,0.01683 -0.285019,0.154272 -1.769586,1.011162 -2.060042,1.189052 -2.3717857,1.370516 -2.4055291,1.400236 -0.020277,0.01786 -0.094931,0.06521 -0.1658986,0.105227 -0.070968,0.04002 -0.2700461,0.154354 -0.4423963,0.254084 -0.1723502,0.09973 -0.5746544,0.33196 -0.8940092,0.516066 C 8.0002286,15.073664 7.6062194,15.301306 7.4440074,15.39543 6.4872508,15.950586 6.501738,15.944426 6.2881057,15.886923 Z M 7.5576147,14.169327 C 8.609841,13.563138 12.972591,11.045398 13.811627,10.560141 14.120271,10.381637 14.379136,10.22925 14.386882,10.221504 14.401725,10.20666 14.168718,9.8007497 10.602278,3.6285248 10.503158,3.4569831 10.414507,3.3090782 10.405276,3.2998472 10.395186,3.2897576 10.268144,3.352758 10.086755,3.4578017 9.7794263,3.6357781 8.8597162,4.1665532 4.8586845,6.4749808 3.6198655,7.1897274 2.6060633,7.7809794 2.6057905,7.7888741 c -2.728e-4,0.00789 0.2928448,0.5221803 0.6513724,1.1428572 1.8930433,3.2772037 2.9516258,5.1102237 3.134606,5.4278217 0.1161423,0.201587 0.2135632,0.35125 0.2257536,0.346813 0.011795,-0.0043 0.4348359,-0.24596 0.9400922,-0.537039 z M 1.8126677,7.0938937 C 1.9708991,7.003499 2.5119901,6.6912927 5.5269535,4.9507735 8.0027853,3.5214913 9.0162657,2.9366649 9.1442943,2.8633956 9.2075645,2.8271869 9.2594078,2.7899762 9.2595017,2.7807053 9.2596123,2.7690549 8.4480095,1.348896 8.4027721,1.2815961 8.4011297,1.2791515 8.1225219,1.4373382 7.7836454,1.633122 7.4447689,1.8289058 6.5080594,2.3694957 5.7020687,2.8344326 4.8960779,3.2993696 4.1198294,3.7475561 3.9770722,3.8304028 l -0.2595589,0.15063 -0.1686631,0.00962 C 3.2792464,4.0060218 3.1183374,4.10697 3.0340441,4.3136196 3.0018582,4.3925254 2.9936432,4.3977431 1.9693498,4.9898481 1.4016078,5.3180382 0.86074734,5.6313495 0.76743757,5.6860953 L 0.59778341,5.785633 1.0439353,6.5615018 1.4900871,7.3373703 1.5730364,7.2603867 c 0.045622,-0.042341 0.1534562,-0.1172628 0.2396313,-0.166493 z"
       id="path5262"
       inkscape:connector-curvature="0"
       transform="translate(0,1036.3622)" />
  </g>
</svg>
